<svg width="93" height="46" viewBox="0 0 93 46" fill="none" xmlns="http://www.w3.org/2000/svg">
<mask id="mask0_176_1787" style="mask-type:luminance" maskUnits="userSpaceOnUse" x="3" y="6" width="26" height="32">
<path d="M28.6233 21.1384L20.302 29.4627L28.6233 37.7869H19.1146L15.5462 34.2185L10.7903 29.4627L19.1146 21.1384H28.6233ZM19.1146 6.87381L3.6595 22.3289L8.41536 27.0847L28.6233 6.87381H19.1146V6.87381Z" fill="white"/>
</mask>
<g mask="url(#mask0_176_1787)">
<path d="M15.5462 34.2185L28.6233 21.1384H19.1146L10.7933 29.4627L15.5462 34.2185Z" fill="#39CEFD"/>
</g>
<mask id="mask1_176_1787" style="mask-type:luminance" maskUnits="userSpaceOnUse" x="3" y="6" width="26" height="32">
<path d="M28.6233 21.1384L20.302 29.4627L28.6233 37.7869H19.1146L15.5462 34.2185L10.7903 29.4627L19.1146 21.1384H28.6233ZM19.1146 6.87381L3.6595 22.3289L8.41536 27.0847L28.6233 6.87381H19.1146V6.87381Z" fill="white"/>
</mask>
<g mask="url(#mask1_176_1787)">
<path d="M3.6595 22.3289L19.1146 6.87381H28.6233L8.41536 27.0847L3.6595 22.3289Z" fill="#39CEFD"/>
</g>
<mask id="mask2_176_1787" style="mask-type:luminance" maskUnits="userSpaceOnUse" x="3" y="6" width="26" height="32">
<path d="M28.6233 21.1384L20.302 29.4627L28.6233 37.7869H19.1146L15.5462 34.2185L10.7903 29.4627L19.1146 21.1384H28.6233ZM19.1146 6.87381L3.6595 22.3289L8.41536 27.0847L28.6233 6.87381H19.1146V6.87381Z" fill="white"/>
</mask>
<g mask="url(#mask2_176_1787)">
<path d="M19.1146 37.784H28.6233L20.302 29.4627L15.5462 34.2185L19.1146 37.784Z" fill="#03569B"/>
</g>
<mask id="mask3_176_1787" style="mask-type:luminance" maskUnits="userSpaceOnUse" x="3" y="6" width="26" height="32">
<path d="M28.6233 21.1384L20.302 29.4627L28.6233 37.7869H19.1146L15.5462 34.2185L10.7903 29.4627L19.1146 21.1384H28.6233ZM19.1146 6.87381L3.6595 22.3289L8.41536 27.0847L28.6233 6.87381H19.1146V6.87381Z" fill="white"/>
</mask>
<g mask="url(#mask3_176_1787)">
<path d="M20.302 29.4627L15.5462 34.2185L22.5996 31.7751L20.302 29.4627Z" fill="url(#paint0_linear_176_1787)"/>
</g>
<mask id="mask4_176_1787" style="mask-type:luminance" maskUnits="userSpaceOnUse" x="3" y="6" width="26" height="32">
<path d="M28.6233 21.1384L20.302 29.4627L28.6233 37.7869H19.1146L15.5462 34.2185L10.7903 29.4627L19.1146 21.1384H28.6233ZM19.1146 6.87381L3.6595 22.3289L8.41536 27.0847L28.6233 6.87381H19.1146V6.87381Z" fill="white"/>
</mask>
<g mask="url(#mask4_176_1787)">
<path d="M10.7933 29.4597L15.5491 24.7038L20.305 29.4597L15.5491 34.2185L10.7933 29.4597Z" fill="#16B9FD"/>
</g>
<path d="M28.6233 21.1384L20.302 29.4627L28.6233 37.7869H19.1146L15.5462 34.2185L10.7903 29.4627L19.1146 21.1384H28.6233ZM19.1146 6.87381L3.6595 22.3289L8.41536 27.0847L28.6233 6.87381H19.1146Z" fill="url(#paint1_radial_176_1787)"/>
<path d="M31.6344 15.1598H39.9683V16.7472H33.3806V21.6681H39.3333V23.2555H33.3806V29.4464H31.7138V15.1598H31.6344Z" fill="white"/>
<path d="M41.9525 15.1598H43.6193V29.5258H41.9525V15.1598Z" fill="white"/>
<path d="M49.8895 29.8433C48.6196 29.8433 47.7465 29.4464 47.0322 28.7321C46.3973 28.0178 46.0798 26.986 46.0798 25.716V19.287H47.7466V25.4779C47.7466 26.4304 47.9847 27.1447 48.3815 27.6209C48.8577 28.0971 49.4133 28.3352 50.207 28.3352C50.7626 28.3352 51.3182 28.1765 51.7151 27.859C52.1913 27.5415 52.5088 27.1447 52.7469 26.6685C52.985 26.1922 53.1437 25.6367 53.1437 25.0811V19.287H54.8105V29.5258H53.2231V28.0178H53.1437C52.8262 28.494 52.4294 28.9702 51.7944 29.2877C51.2388 29.6845 50.6039 29.8433 49.8895 29.8433Z" fill="white"/>
<path d="M61.4776 29.6845C61.0807 29.6845 60.6839 29.6052 60.287 29.4464C59.9695 29.2877 59.6521 29.1289 59.414 28.8908C59.1758 28.6527 58.9377 28.3352 58.779 28.0178C58.6203 27.7003 58.5409 27.3034 58.5409 26.8272V20.7951H56.7154V19.287H58.5409V16.4297H60.2077V19.287H62.6681V20.7951H60.2077V26.351C60.2077 26.9066 60.287 27.3034 60.5251 27.6209C60.7632 27.9384 61.1601 28.0971 61.6363 28.0971C62.0332 28.0971 62.43 28.0178 62.7475 27.7796V29.4464C62.5094 29.5258 62.3507 29.6052 62.1125 29.6845C62.1125 29.6845 61.7951 29.6845 61.4776 29.6845Z" fill="white"/>
<path d="M68.7003 29.6845C68.3034 29.6845 67.9066 29.6052 67.5097 29.4464C67.1922 29.2877 66.8747 29.1289 66.6366 28.8908C66.3985 28.6527 66.1604 28.3352 66.0017 28.0178C65.8429 27.7003 65.7636 27.3034 65.7636 26.8272V20.7951H64.0968V19.287H65.9223V16.4297H67.5891V19.287H70.0496V20.7951H67.5891V26.351C67.5891 26.9066 67.6685 27.3034 67.9066 27.6209C68.1447 27.9384 68.5415 28.0971 69.0177 28.0971C69.4146 28.0971 69.8114 28.0178 70.1289 27.7796V29.4464C69.8908 29.5258 69.7321 29.6052 69.494 29.6845C69.3352 29.6845 69.0177 29.6845 68.7003 29.6845Z" fill="white"/>
<path d="M76.2404 29.8433C75.288 29.8433 74.4149 29.6051 73.6212 29.1289C72.8275 28.6527 72.2719 28.0177 71.7957 27.224C71.3988 26.4303 71.1607 25.4779 71.1607 24.4461C71.1607 23.4936 71.3988 22.5412 71.7957 21.7475C72.1925 20.9538 72.8275 20.2395 73.5418 19.7633C74.2562 19.287 75.1292 19.0489 76.1611 19.0489C77.1929 19.0489 78.0659 19.287 78.7803 19.7633C79.4946 20.2395 80.0502 20.7951 80.447 21.5888C80.8439 22.3825 81.082 23.2555 81.082 24.2873C81.082 24.5255 81.082 24.6842 81.0026 24.8429H72.8275C72.9069 25.6366 73.0656 26.2716 73.3831 26.8272C73.7006 27.3828 74.1768 27.7796 74.653 28.0177C75.2086 28.2559 75.6848 28.4146 76.2404 28.4146C77.5897 28.4146 78.5422 27.7796 79.2565 26.5891L80.6852 27.3034C80.2089 28.0971 79.6533 28.8114 78.8596 29.2877C78.2247 29.6051 77.3516 29.8433 76.2404 29.8433ZM79.1771 23.3349C79.1771 22.9381 79.0184 22.4618 78.7803 22.065C78.5422 21.6681 78.2247 21.2713 77.7485 20.9538C77.2722 20.6363 76.7166 20.4776 76.0023 20.4776C75.2086 20.4776 74.4943 20.7157 73.9387 21.2713C73.3831 21.7475 73.0656 22.4618 72.8275 23.3349H79.1771Z" fill="white"/>
<path d="M82.9869 19.287H84.5743V20.9538H84.6536C84.8918 20.3982 85.2092 19.922 85.8442 19.6045C86.3998 19.2077 87.0347 19.0489 87.6697 19.0489C88.1459 19.0489 88.5428 19.1283 88.8603 19.287V21.1125C88.4634 20.8744 87.9872 20.7951 87.4316 20.7951C86.9554 20.7951 86.4792 20.9538 86.0823 21.1919C85.6855 21.5094 85.368 21.8269 85.0505 22.3031C84.8124 22.7793 84.6536 23.2555 84.6536 23.8111V29.5258H82.9869V19.287Z" fill="white"/>
<defs>
<linearGradient id="paint0_linear_176_1787" x1="-742.383" y1="-327.307" x2="-742.246" y2="-327.444" gradientUnits="userSpaceOnUse">
<stop stop-color="#1A237E" stop-opacity="0.4"/>
<stop offset="1" stop-color="#1A237E" stop-opacity="0"/>
</linearGradient>
<radialGradient id="paint1_radial_176_1787" cx="0" cy="0" r="1" gradientUnits="userSpaceOnUse" gradientTransform="translate(-678.186 -271.175) scale(1.46808 1.46808)">
<stop stop-color="white" stop-opacity="0.1"/>
<stop offset="1" stop-color="white" stop-opacity="0"/>
</radialGradient>
</defs>
</svg>
