<svg width="24" height="24" viewBox="0 0 24 24" fill="none" xmlns="http://www.w3.org/2000/svg">
<path opacity="0.4" d="M12 24C18.6274 24 24 18.6274 24 12C24 5.37258 18.6274 0 12 0C5.37258 0 0 5.37258 0 12C0 18.6274 5.37258 24 12 24Z" fill="#A5FFFF"/>
<path d="M13.5119 17.1362C13.2839 17.1362 13.0559 17.0522 12.8759 16.8722L8.63991 12.6362C8.29191 12.2882 8.29191 11.7122 8.63991 11.3642L12.8759 7.12819C13.2239 6.78019 13.7999 6.78019 14.1479 7.12819C14.4959 7.47619 14.4959 8.05219 14.1479 8.40019L10.5479 12.0002L14.1479 15.6002C14.4959 15.9482 14.4959 16.5242 14.1479 16.8722C13.9799 17.0522 13.7519 17.1362 13.5119 17.1362Z" fill="#A5FFFF"/>
</svg>
