<svg width="24" height="24" viewBox="0 0 24 24" fill="none" xmlns="http://www.w3.org/2000/svg">
<path d="M18 3.552V12.096C18 14.484 16.308 15.408 14.232 14.16L12.648 13.2C12.288 12.984 11.712 12.984 11.352 13.2L9.768 14.16C7.692 15.408 6 14.484 6 12.096V3.588C6.012 1.2 7.212 0 9.6 0H14.4C16.776 0 17.976 1.188 18 3.552Z" fill="#A5FFFF"/>
<path opacity="0.4" d="M24 11.88V15.516C24 21.576 21.6 24 15.6 24H8.4C2.4 24 0 21.576 0 15.516V11.88C0 6.79194 1.692 4.27194 5.784 3.58794H6V12.096C6 14.484 7.692 15.408 9.768 14.16L11.352 13.2C11.712 12.984 12.288 12.984 12.648 13.2L14.232 14.16C16.308 15.408 18 14.484 18 12.096V3.55194C22.248 4.17594 24 6.70794 24 11.88Z" fill="#A5FFFF"/>
</svg>
