<svg width="24" height="26" viewBox="0 0 24 26" fill="none" xmlns="http://www.w3.org/2000/svg">
<path opacity="0.4" d="M5.55603 25.2976H18.444C21.8381 25.2976 23.1908 23.2193 23.3507 20.686L23.9902 10.5282C24.1624 7.8719 22.0472 5.62144 19.3786 5.62144C18.6284 5.62144 17.9398 5.19102 17.5954 4.52695L16.71 2.7438C16.1443 1.62471 14.6686 0.702393 13.4142 0.702393H10.5981C9.3314 0.702393 7.85569 1.62471 7.29 2.7438L6.40457 4.52695C6.06024 5.19102 5.37157 5.62144 4.62142 5.62144C1.95284 5.62144 -0.162353 7.8719 0.00981354 10.5282L0.649289 20.686C0.79686 23.2193 2.1619 25.2976 5.55603 25.2976Z" fill="#143A62"/>
<path d="M13.8444 9.00321H10.1551C9.65092 9.00321 9.2328 8.58509 9.2328 8.08089C9.2328 7.57669 9.65092 7.15857 10.1551 7.15857H13.8444C14.3486 7.15857 14.7667 7.57669 14.7667 8.08089C14.7667 8.58509 14.3486 9.00321 13.8444 9.00321Z" fill="#143A62"/>
<path d="M11.9987 20.5386C14.2944 20.5386 16.1553 18.6776 16.1553 16.382C16.1553 14.0864 14.2944 12.2254 11.9987 12.2254C9.70308 12.2254 7.84213 14.0864 7.84213 16.382C7.84213 18.6776 9.70308 20.5386 11.9987 20.5386Z" fill="#143A62"/>
</svg>
