<svg width="24" height="24" viewBox="0 0 24 24" fill="none" xmlns="http://www.w3.org/2000/svg">
<path opacity="0.4" d="M12 24C18.6274 24 24 18.6274 24 12C24 5.37258 18.6274 0 12 0C5.37258 0 0 5.37258 0 12C0 18.6274 5.37258 24 12 24Z" fill="#A5FFFF"/>
<path d="M10.2954 16.2961C10.0554 16.2961 9.82741 16.2001 9.65941 16.0321L6.26335 12.6361C5.91535 12.2881 5.91535 11.7121 6.26335 11.3641C6.61135 11.0161 7.18735 11.0161 7.53535 11.3641L10.2954 14.1241L16.4634 7.95613C16.8114 7.60813 17.3874 7.60813 17.7354 7.95613C18.0834 8.30413 18.0834 8.88013 17.7354 9.22813L10.9314 16.0321C10.7634 16.2001 10.5354 16.2961 10.2954 16.2961Z" fill="#A5FFFF"/>
</svg>
