<svg width="24" height="16" viewBox="0 0 24 16" fill="none" xmlns="http://www.w3.org/2000/svg">
<path opacity="0.4" d="M16.5624 5.37307C17.9086 5.37307 19 4.2817 19 2.93544C19 1.58916 17.9086 0.497803 16.5624 0.497803C15.2161 0.497803 14.1247 1.58916 14.1247 2.93544C14.1247 4.2817 15.2161 5.37307 16.5624 5.37307Z" fill="#143A62"/>
<path d="M7.43763 5.37307C8.7839 5.37307 9.87527 4.2817 9.87527 2.93544C9.87527 1.58916 8.7839 0.497803 7.43763 0.497803C6.09137 0.497803 5 1.58916 5 2.93544C5 4.2817 6.09137 5.37307 7.43763 5.37307Z" fill="#143A62"/>
<path d="M16.5624 15.5023C17.9086 15.5023 19 14.411 19 13.0647C19 11.7185 17.9086 10.627 16.5624 10.627C15.2161 10.627 14.1247 11.7185 14.1247 13.0647C14.1247 14.411 15.2161 15.5023 16.5624 15.5023Z" fill="#143A62"/>
<path opacity="0.4" d="M7.43763 15.5023C8.7839 15.5023 9.87527 14.411 9.87527 13.0647C9.87527 11.7185 8.7839 10.627 7.43763 10.627C6.09137 10.627 5 11.7185 5 13.0647C5 14.411 6.09137 15.5023 7.43763 15.5023Z" fill="#143A62"/>
</svg>
