<svg width="24" height="26" viewBox="0 0 24 26" fill="none" xmlns="http://www.w3.org/2000/svg">
<path opacity="0.4" d="M15.8748 2.62793H6.50065C2.43774 2.62793 0 5.0539 0 9.12858V18.4909C0 22.5774 2.43774 25.0034 6.50065 25.0034H15.863C19.9377 25.0034 22.3636 22.5774 22.3636 18.5027V9.12858C22.3754 5.0539 19.9377 2.62793 15.8748 2.62793Z" fill="#A5FFFF"/>
<path d="M22.3984 2.60413C20.2904 0.484351 18.2295 0.437245 16.0626 2.60413L14.7319 3.9231C14.6141 4.04087 14.5788 4.20574 14.6259 4.35883C15.4502 7.24409 17.7584 9.55229 20.6437 10.3766C20.679 10.3884 20.7379 10.3884 20.7732 10.3884C20.891 10.3884 21.0088 10.3413 21.0912 10.2589L22.3984 8.93991C23.4701 7.86824 24 6.84368 24 5.79557C24 4.73568 23.4701 3.68757 22.3984 2.60413Z" fill="#A5FFFF"/>
<path d="M18.6765 11.3659C18.3586 11.2128 18.0524 11.0597 17.7698 10.8831C17.5342 10.7418 17.2987 10.5887 17.0749 10.4238C16.8865 10.3061 16.6745 10.1294 16.4626 9.95278C16.439 9.94101 16.3683 9.88212 16.2741 9.78791C15.9091 9.4935 15.5204 9.09309 15.1554 8.65736C15.1318 8.63381 15.0611 8.56315 15.0023 8.45716C14.8845 8.32762 14.7079 8.10386 14.5548 7.85656C14.4252 7.69169 14.2721 7.45616 14.1308 7.20885C13.9542 6.91443 13.8011 6.62002 13.6597 6.31383C13.5066 5.98409 13.3889 5.6779 13.2829 5.38348L6.94713 11.7192C6.53495 12.1314 6.13455 12.9086 6.05212 13.4857L5.54573 16.9951C5.43974 17.737 5.63994 18.4318 6.09922 18.8911C6.48785 19.2798 7.01779 19.48 7.60662 19.48C7.73616 19.48 7.8657 19.4682 7.99525 19.4564L11.4929 18.9618C12.0699 18.8794 12.8472 18.4907 13.2593 18.0668L19.5951 11.731C19.3007 11.6368 19.0063 11.5072 18.6765 11.3659Z" fill="#A5FFFF"/>
</svg>
