<svg width="24" height="24" viewBox="0 0 24 24" fill="none" xmlns="http://www.w3.org/2000/svg">
<path opacity="0.4" d="M9.68638 0.778058L1.37163 7.56487C0.435768 8.32304 -0.164141 9.92498 0.0398277 11.1234L1.63559 20.8573C1.92354 22.5937 3.55528 24 5.28302 24H18.721C20.4367 24 22.0805 22.5815 22.3685 20.8573L23.9642 11.1234C24.1562 9.92498 23.5563 8.32304 22.6324 7.56487L14.3177 0.790262C13.0339 -0.26139 10.9582 -0.261366 9.68638 0.778058Z" fill="#A5FFFF"/>
<path d="M12.0029 16.2837C13.6595 16.2837 15.0024 14.915 15.0024 13.2266C15.0024 11.5382 13.6595 10.1694 12.0029 10.1694C10.3463 10.1694 9.00333 11.5382 9.00333 13.2266C9.00333 14.915 10.3463 16.2837 12.0029 16.2837Z" fill="#A5FFFF"/>
</svg>
