<svg width="21" height="25" viewBox="0 0 21 25" fill="none" xmlns="http://www.w3.org/2000/svg">
<path opacity="0.4" d="M20.4878 7.93863C19.2585 2.52985 14.5404 0.0947266 10.396 0.0947266C10.396 0.0947266 10.3961 0.0947266 10.3843 0.0947266C6.25168 0.0947266 1.52193 2.51814 0.292657 7.92692C-1.0771 13.9679 2.62241 19.084 5.97071 22.3035C7.21168 23.4977 8.80385 24.0947 10.396 24.0947C11.9882 24.0947 13.5804 23.4977 14.8097 22.3035C18.158 19.084 21.8575 13.9796 20.4878 7.93863Z" fill="#143A62"/>
<path d="M10.3967 13.8042C12.4334 13.8042 14.0845 12.1532 14.0845 10.1164C14.0845 8.07967 12.4334 6.42859 10.3967 6.42859C8.35993 6.42859 6.70886 8.07967 6.70886 10.1164C6.70886 12.1532 8.35993 13.8042 10.3967 13.8042Z" fill="#143A62"/>
</svg>
