<svg width="122" height="23" viewBox="0 0 122 23" fill="none" xmlns="http://www.w3.org/2000/svg">
<path d="M5.76 18V3.552H0.6V1.2H13.512V3.552H8.352V18H5.76ZM13.239 18V6.168H15.663V7.56H16.047C16.239 7.064 16.543 6.704 16.959 6.48C17.391 6.24 17.919 6.12 18.543 6.12H19.959V8.352H18.447C17.647 8.352 16.991 8.576 16.479 9.024C15.967 9.456 15.711 10.128 15.711 11.04V18H13.239ZM24.9041 18.336C24.0561 18.336 23.2961 18.192 22.6241 17.904C21.9681 17.616 21.4401 17.192 21.0401 16.632C20.6561 16.072 20.4641 15.392 20.4641 14.592C20.4641 13.776 20.6561 13.104 21.0401 12.576C21.4401 12.032 21.9761 11.624 22.6481 11.352C23.3361 11.08 24.1121 10.944 24.9761 10.944H28.5761V10.176C28.5761 9.488 28.3681 8.936 27.9521 8.52C27.5361 8.104 26.8961 7.896 26.0321 7.896C25.1841 7.896 24.5361 8.096 24.0881 8.496C23.6401 8.896 23.3441 9.416 23.2001 10.056L20.8961 9.312C21.0881 8.672 21.3921 8.096 21.8081 7.584C22.2401 7.056 22.8081 6.632 23.5121 6.312C24.2161 5.992 25.0641 5.832 26.0561 5.832C27.5921 5.832 28.8001 6.224 29.6801 7.008C30.5601 7.792 31.0001 8.904 31.0001 10.344V15.216C31.0001 15.696 31.2241 15.936 31.6721 15.936H32.6801V18H30.8321C30.2721 18 29.8161 17.856 29.4641 17.568C29.1121 17.28 28.9361 16.888 28.9361 16.392V16.32H28.5761C28.4481 16.56 28.2561 16.84 28.0001 17.16C27.7441 17.48 27.3681 17.76 26.8721 18C26.3761 18.224 25.7201 18.336 24.9041 18.336ZM25.2641 16.296C26.2561 16.296 27.0561 16.016 27.6641 15.456C28.2721 14.88 28.5761 14.096 28.5761 13.104V12.864H25.1201C24.4641 12.864 23.9361 13.008 23.5361 13.296C23.1361 13.568 22.9361 13.976 22.9361 14.52C22.9361 15.064 23.1441 15.496 23.5601 15.816C23.9761 16.136 24.5441 16.296 25.2641 16.296ZM35.4394 18V8.256H32.1274V6.168H35.4394V3.576C35.4394 2.856 35.6554 2.28 36.0874 1.848C36.5194 1.416 37.0954 1.2 37.8154 1.2H40.8634V3.288H38.6074C38.1434 3.288 37.9114 3.528 37.9114 4.008V6.168H40.5754V8.256H37.9114V18H35.4394ZM43.2154 18V8.256H40.5754V6.168H43.2154V3.576C43.2154 2.856 43.4234 2.28 43.8394 1.848C44.2714 1.416 44.8554 1.2 45.5914 1.2H48.6394V3.288H46.3834C45.9194 3.288 45.6874 3.528 45.6874 4.008V6.168H49.0954V8.256H45.6874V18H43.2154Z" fill="#A5FFFF"/>
<path d="M50.5761 18V1.2H61.1601V3.552H53.1681V8.376H60.4881V10.728H53.1681V15.648H61.2801V18H50.5761ZM64.4623 22.8V20.64H71.0623C71.5103 20.64 71.7343 20.4 71.7343 19.92V16.272H71.3503C71.2063 16.592 70.9823 16.904 70.6783 17.208C70.3903 17.496 69.9983 17.736 69.5023 17.928C69.0063 18.12 68.3823 18.216 67.6303 18.216C66.7343 18.216 65.9343 18.016 65.2303 17.616C64.5263 17.216 63.9743 16.648 63.5743 15.912C63.1743 15.176 62.9743 14.304 62.9743 13.296V6.168H65.4463V13.104C65.4463 14.128 65.7023 14.888 66.2143 15.384C66.7263 15.864 67.4383 16.104 68.3503 16.104C69.3583 16.104 70.1663 15.768 70.7743 15.096C71.3983 14.424 71.7103 13.448 71.7103 12.168V6.168H74.1823V20.424C74.1823 21.144 73.9663 21.72 73.5343 22.152C73.1183 22.584 72.5423 22.8 71.8063 22.8H64.4623ZM82.3005 18.336C81.1005 18.336 80.0525 18.088 79.1565 17.592C78.2605 17.08 77.5565 16.368 77.0445 15.456C76.5485 14.528 76.3005 13.456 76.3005 12.24V11.952C76.3005 10.72 76.5485 9.648 77.0445 8.736C77.5405 7.808 78.2285 7.096 79.1085 6.6C80.0045 6.088 81.0365 5.832 82.2045 5.832C83.3405 5.832 84.3325 6.088 85.1805 6.6C86.0445 7.096 86.7165 7.792 87.1965 8.688C87.6765 9.584 87.9165 10.632 87.9165 11.832V12.768H78.8205C78.8525 13.808 79.1965 14.64 79.8525 15.264C80.5245 15.872 81.3565 16.176 82.3485 16.176C83.2765 16.176 83.9725 15.968 84.4365 15.552C84.9165 15.136 85.2845 14.656 85.5405 14.112L87.5805 15.168C87.3565 15.616 87.0285 16.088 86.5965 16.584C86.1805 17.08 85.6285 17.496 84.9405 17.832C84.2525 18.168 83.3725 18.336 82.3005 18.336ZM78.8445 10.872H85.3965C85.3325 9.976 85.0125 9.28 84.4365 8.784C83.8605 8.272 83.1085 8.016 82.1805 8.016C81.2525 8.016 80.4925 8.272 79.9005 8.784C79.3245 9.28 78.9725 9.976 78.8445 10.872Z" fill="#FFC08A"/>
<path d="M100.729 18.336C99.4653 18.336 98.3453 18.112 97.3693 17.664C96.3933 17.216 95.6253 16.56 95.0653 15.696C94.5213 14.816 94.2493 13.752 94.2493 12.504V11.904H96.8173V12.504C96.8173 13.688 97.1693 14.576 97.8733 15.168C98.5933 15.76 99.5453 16.056 100.729 16.056C101.929 16.056 102.833 15.808 103.441 15.312C104.049 14.8 104.353 14.144 104.353 13.344C104.353 12.816 104.209 12.384 103.921 12.048C103.633 11.712 103.225 11.448 102.697 11.256C102.169 11.048 101.537 10.856 100.801 10.68L99.9133 10.464C98.8413 10.208 97.9053 9.896 97.1053 9.528C96.3213 9.144 95.7133 8.64 95.2813 8.016C94.8493 7.392 94.6333 6.592 94.6333 5.616C94.6333 4.624 94.8733 3.776 95.3533 3.072C95.8493 2.368 96.5293 1.824 97.3933 1.44C98.2573 1.056 99.2733 0.863999 100.441 0.863999C101.609 0.863999 102.649 1.064 103.561 1.464C104.489 1.864 105.217 2.456 105.745 3.24C106.273 4.024 106.537 5.008 106.537 6.192V7.056H103.969V6.192C103.969 5.472 103.817 4.888 103.513 4.44C103.225 3.992 102.817 3.664 102.289 3.456C101.761 3.248 101.145 3.144 100.441 3.144C99.4173 3.144 98.6173 3.36 98.0413 3.792C97.4813 4.208 97.2013 4.792 97.2013 5.544C97.2013 6.056 97.3213 6.48 97.5613 6.816C97.8173 7.136 98.1853 7.4 98.6653 7.608C99.1453 7.816 99.7453 8 100.465 8.16L101.353 8.376C102.441 8.616 103.401 8.928 104.233 9.312C105.065 9.68 105.721 10.184 106.201 10.824C106.681 11.464 106.921 12.288 106.921 13.296C106.921 14.304 106.665 15.184 106.153 15.936C105.657 16.688 104.945 17.28 104.017 17.712C103.089 18.128 101.993 18.336 100.729 18.336ZM114.514 18.336C113.314 18.336 112.242 18.08 111.298 17.568C110.354 17.04 109.61 16.272 109.066 15.264C108.522 14.256 108.25 13.024 108.25 11.568V7.632C108.25 5.44 108.85 3.768 110.05 2.616C111.25 1.448 112.874 0.863999 114.922 0.863999C116.938 0.863999 118.49 1.416 119.578 2.52C120.666 3.608 121.21 5.072 121.21 6.912V7.032H118.642V6.84C118.642 6.152 118.506 5.536 118.234 4.992C117.962 4.432 117.554 3.992 117.01 3.672C116.466 3.352 115.77 3.192 114.922 3.192C113.642 3.192 112.642 3.584 111.922 4.368C111.202 5.136 110.842 6.208 110.842 7.584V11.616C110.842 12.976 111.202 14.056 111.922 14.856C112.642 15.64 113.65 16.032 114.946 16.032C116.226 16.032 117.162 15.68 117.754 14.976C118.346 14.272 118.642 13.36 118.642 12.24V11.928H114.13V9.696H121.21V18H118.81V16.296H118.426C118.282 16.6 118.066 16.912 117.778 17.232C117.506 17.552 117.106 17.816 116.578 18.024C116.066 18.232 115.378 18.336 114.514 18.336Z" fill="#F8F8F8"/>
</svg>
