<svg width="24" height="24" viewBox="0 0 24 24" fill="none" xmlns="http://www.w3.org/2000/svg">
<path opacity="0.4" d="M12 24C18.6274 24 24 18.6274 24 12C24 5.37258 18.6274 0 12 0C5.37258 0 0 5.37258 0 12C0 18.6274 5.37258 24 12 24Z" fill="#143A62"/>
<path d="M10.4876 17.1362C10.2596 17.1362 10.0316 17.0522 9.85163 16.8722C9.50362 16.5242 9.50362 15.9482 9.85163 15.6002L13.4516 12.0002L9.85163 8.40019C9.50362 8.05219 9.50362 7.47619 9.85163 7.12819C10.1996 6.78019 10.7756 6.78019 11.1236 7.12819L15.3596 11.3642C15.7076 11.7122 15.7076 12.2882 15.3596 12.6362L11.1236 16.8722C10.9436 17.0522 10.7156 17.1362 10.4876 17.1362Z" fill="#143A62"/>
</svg>
