<svg width="24" height="24" viewBox="0 0 24 24" fill="none" xmlns="http://www.w3.org/2000/svg">
<path opacity="0.4" d="M11.9988 0C8.64938 0 5.92636 2.45572 5.92636 5.47638C5.92636 8.43938 8.49597 10.8375 11.8454 10.9412C11.9477 10.9297 12.05 10.9297 12.1267 10.9412H12.1906H12.2162C15.4889 10.8375 18.0585 8.43938 18.0713 5.47638C18.0713 2.45572 15.3483 0 11.9988 0Z" fill="#A5FFFF"/>
<path d="M18.4943 14.9496C14.9275 12.8052 9.11081 12.8052 5.51847 14.9496C3.89489 15.9296 3 17.2554 3 18.6735C3 20.0916 3.89489 21.406 5.50569 22.3744C7.29547 23.4582 9.6477 24 12 24C14.3523 24 16.7045 23.4582 18.4943 22.3744C20.1051 21.3944 21 20.0801 21 18.6505C20.9872 17.2324 20.1051 15.9181 18.4943 14.9496Z" fill="#A5FFFF"/>
</svg>
