<svg width="18" height="24" viewBox="0 0 18 24" fill="none" xmlns="http://www.w3.org/2000/svg">
<path opacity="0.4" d="M8.99882 0C5.64938 0 2.92636 2.45572 2.92636 5.47638C2.92636 8.43938 5.49597 10.8375 8.84541 10.9412C8.94769 10.9297 9.04996 10.9297 9.12666 10.9412H9.19058H9.21615C12.4889 10.8375 15.0585 8.43938 15.0713 5.47638C15.0713 2.45572 12.3483 0 8.99882 0Z" fill="#A5FFFF"/>
<path d="M15.4943 14.9496C11.9275 12.8051 6.11081 12.8051 2.51847 14.9496C0.894889 15.9296 0 17.2554 0 18.6735C0 20.0916 0.894889 21.4059 2.50569 22.3744C4.29547 23.4581 6.6477 24 8.99998 24C11.3523 24 13.7045 23.4581 15.4943 22.3744C17.1051 21.3944 18 20.0801 18 18.6504C17.9872 17.2324 17.1051 15.918 15.4943 14.9496Z" fill="#A5FFFF"/>
</svg>
