<svg width="30" height="30" viewBox="0 0 30 30" fill="none" xmlns="http://www.w3.org/2000/svg">
<path opacity="0.4" d="M15 30C23.2842 30 30 23.2842 30 15C30 6.71572 23.2842 0 15 0C6.71572 0 0 6.71572 0 15C0 23.2842 6.71572 30 15 30Z" fill="#A5FFFF"/>
<path d="M22.1379 14.8952C21.5079 14.7902 20.9529 15.2402 20.8629 15.8552C20.6829 17.1602 20.0979 18.3302 19.1979 19.2302C17.1279 21.3002 13.9179 21.5102 11.5929 19.9052H12.7179C13.3329 19.9052 13.8429 19.3952 13.8429 18.7802C13.8429 18.1652 13.3329 17.6552 12.7179 17.6552H8.71289C8.09789 17.6552 7.58789 18.1652 7.58789 18.7802V22.7852C7.58789 23.4002 8.09789 23.9102 8.71289 23.9102C9.32789 23.9102 9.83789 23.4002 9.83789 22.7852V21.3752C11.3379 22.5902 13.1529 23.2352 14.9829 23.2352C17.0829 23.2352 19.1829 22.4402 20.7879 20.8352C22.0329 19.5902 22.8279 17.9852 23.0829 16.1852C23.1879 15.5402 22.7529 14.9702 22.1379 14.8952Z" fill="#A5FFFF"/>
<path d="M8.00916 15.1202C8.56416 15.1202 9.04414 14.7152 9.11914 14.1602C9.29914 12.8552 9.88416 11.6851 10.7842 10.7851C12.8541 8.71512 16.0642 8.5051 18.3892 10.1101H17.2642C16.6492 10.1101 16.1392 10.6201 16.1392 11.2351C16.1392 11.8501 16.6492 12.3602 17.2642 12.3602H21.2691C21.8841 12.3602 22.3941 11.8501 22.3941 11.2351V7.23013C22.3941 6.61513 21.8841 6.10513 21.2691 6.10513C20.6541 6.10513 20.1441 6.61513 20.1441 7.23013V8.64013C16.9191 6.03013 12.1942 6.19512 9.20919 9.18012C7.96419 10.4251 7.16914 12.03 6.91414 13.83C6.82414 14.445 7.25916 15.0152 7.87416 15.1052C7.90416 15.1202 7.96416 15.1202 8.00916 15.1202Z" fill="#A5FFFF"/>
</svg>
