<svg width="19" height="20" viewBox="0 0 19 20" fill="none" xmlns="http://www.w3.org/2000/svg">
<path opacity="0.4" d="M7.5 15C11.6421 15 15 11.6421 15 7.5C15 3.35786 11.6421 0 7.5 0C3.35786 0 0 3.35786 0 7.5C0 11.6421 3.35786 15 7.5 15Z" fill="#143A62"/>
<path d="M13.8952 13.9903L13.8951 13.9903L13.8888 13.9968C13.3739 14.5312 13.3648 15.384 13.8952 15.9147L16.1809 18.2022C16.4392 18.4607 16.7898 18.5947 17.1367 18.5947C17.4869 18.5947 17.829 18.459 18.0915 18.215L18.1016 18.2056L18.1112 18.1957C18.6261 17.6613 18.6352 16.8086 18.1048 16.2778L15.8191 13.9903L15.8192 13.9903L15.8126 13.984C15.2784 13.4685 14.4257 13.4594 13.8952 13.9903Z" fill="#143A62" stroke="#143A62"/>
</svg>
