<svg width="40" height="45" viewBox="0 0 40 45" fill="none" xmlns="http://www.w3.org/2000/svg">
<path opacity="0.4" d="M40 14.4855V29.5431C40 32.0087 38.6791 34.2982 36.5438 35.553L23.4673 43.1039C21.3319 44.3367 18.6902 44.3367 16.5328 43.1039L3.45624 35.553C1.32086 34.3202 0 32.0308 0 29.5431V14.4855C0 12.0199 1.32086 9.73028 3.45624 8.47547L16.5328 0.924599C18.6682 -0.3082 21.3099 -0.3082 23.4673 0.924599L36.5438 8.47547C38.6791 9.73028 40 11.9978 40 14.4855Z" fill="#FF9840"/>
<path d="M20.0106 25.8668C19.108 25.8668 18.3595 25.1183 18.3595 24.2157V12.6582C18.3595 11.7556 19.108 11.0072 20.0106 11.0072C20.9132 11.0072 21.6616 11.7556 21.6616 12.6582V24.2157C21.6616 25.1183 20.9132 25.8668 20.0106 25.8668Z" fill="#FF9840"/>
<path d="M20.0106 33.5715C19.7244 33.5715 19.4383 33.5052 19.1741 33.3951C18.8879 33.2851 18.6678 33.1312 18.4476 32.9331C18.2495 32.7129 18.0954 32.4708 17.9633 32.2066C17.8532 31.9424 17.8092 31.6562 17.8092 31.3701C17.8092 30.7977 18.0293 30.2251 18.4476 29.8068C18.6678 29.6087 18.8879 29.4548 19.1741 29.3447C19.9886 28.9925 20.9572 29.1904 21.5736 29.8068C21.7718 30.027 21.9259 30.2473 22.0359 30.5335C22.146 30.7977 22.2121 31.0839 22.2121 31.3701C22.2121 31.6562 22.146 31.9424 22.0359 32.2066C21.9259 32.4708 21.7718 32.7129 21.5736 32.9331C21.1554 33.3513 20.605 33.5715 20.0106 33.5715Z" fill="#FF9840"/>
</svg>
