<svg width="25" height="25" viewBox="0 0 25 25" fill="none" xmlns="http://www.w3.org/2000/svg">
<path d="M14.6 2C16.7 2 17.75 3.0605 17.75 5.1815V12.584C17.75 14.6735 16.2695 15.482 14.453 14.39L13.067 13.55C12.752 13.361 12.248 13.361 11.933 13.55L10.547 14.39C8.73051 15.482 7.25001 14.6735 7.25001 12.584V5.1815C7.25001 3.0605 8.30001 2 10.4 2H14.6Z" stroke="#143A62" stroke-width="2.64343" stroke-linecap="round" stroke-linejoin="round"/>
<path opacity="0.4" d="M7.061 5.13946C3.4805 5.73796 2 7.94296 2 12.395V15.5765C2 20.879 4.1 23 9.35 23H15.65C20.9 23 23 20.879 23 15.5765V12.395C23 7.86946 21.467 5.65396 17.75 5.10796" stroke="#143A62" stroke-width="2.64343" stroke-linecap="round" stroke-linejoin="round"/>
</svg>
