<svg width="28" height="28" viewBox="0 0 28 28" fill="none" xmlns="http://www.w3.org/2000/svg">
<path d="M16.4 2C18.8 2 20 3.212 20 5.636V14.096C20 16.484 18.308 17.408 16.232 16.16L14.648 15.2C14.288 14.984 13.712 14.984 13.352 15.2L11.768 16.16C9.69201 17.408 8.00001 16.484 8.00001 14.096V5.636C8.00001 3.212 9.20001 2 11.6 2H16.4Z" stroke="#143A62" stroke-width="2.64343" stroke-linecap="round" stroke-linejoin="round"/>
<path opacity="0.4" d="M7.784 5.58795C3.692 6.27195 2 8.79195 2 13.88V17.516C2 23.576 4.4 26 10.4 26H17.6C23.6 26 26 23.576 26 17.516V13.88C26 8.70795 24.248 6.17595 20 5.55195" stroke="#143A62" stroke-width="2.64343" stroke-linecap="round" stroke-linejoin="round"/>
</svg>
